<svg width="1024" height="1024" viewBox="0 0 1024 1024" fill="none" xmlns="http://www.w3.org/2000/svg">
<path d="M816.999 227.58H660.454C660.502 224.565 660.502 221.503 660.598 218.584C661.412 184.607 662.226 149.482 637.14 123.737C614.352 100.432 575.719 90 512 90C448.281 90 409.695 100.432 386.908 123.785C361.822 149.482 362.636 184.607 363.45 218.631C363.498 221.55 363.546 224.613 363.594 227.628H207.001C167.314 227.628 135 259.929 135 299.6V739.952C135 779.623 167.314 811.925 207.001 811.925H400.312L512 934L623.688 811.925H816.999C856.686 811.925 889 779.623 889 739.952V299.6C889.048 259.882 856.686 227.58 816.999 227.58Z" fill="url(#paint0_linear_324_26)"/>
<path d="M816.999 227.58H660.454C660.502 224.565 660.502 221.503 660.598 218.584C661.412 184.607 662.226 149.482 637.14 123.737C614.352 100.432 575.719 90 512 90C448.281 90 409.695 100.432 386.908 123.785C361.822 149.482 362.636 184.607 363.45 218.631C363.498 221.55 363.546 224.613 363.594 227.628H207.001C167.314 227.628 135 259.929 135 299.6V739.952C135 779.623 167.314 811.925 207.001 811.925H400.312L512 934L623.688 811.925H816.999C856.686 811.925 889 779.623 889 739.952V299.6C889.048 259.882 856.686 227.58 816.999 227.58ZM405.818 217.579C405.052 185.756 405.195 165.657 417.211 153.359C430.807 139.433 462.739 132.351 512 132.351C561.309 132.351 593.24 139.433 606.836 153.359C618.853 165.657 618.996 185.804 618.23 217.579C618.134 220.833 618.087 224.23 618.087 227.58H405.961C405.913 224.23 405.866 220.833 405.818 217.579ZM535.841 269.931L512 340.946L488.159 269.931H535.841ZM177.368 739.952V299.6C177.368 283.282 190.676 269.979 207.001 269.979H442.44L489.165 409.09L368.094 769.622H207.001C190.676 769.574 177.368 756.271 177.368 739.952ZM512 869.78L415.584 764.406L512 477.138L608.464 764.406L512 869.78ZM846.68 739.952C846.68 756.271 833.371 769.574 817.047 769.574H656.002L534.883 409.042L581.607 269.931H817.047C833.419 269.931 846.68 283.234 846.68 299.552V739.952Z" fill="#A9DDF3"/>
<path d="M740.785 400.141C743.945 397.701 746.434 394.447 748.253 390.475C750.025 386.503 750.934 382.196 750.934 377.65C750.934 369.036 748.301 362.815 743.035 358.939C739.062 356.02 733.125 354.202 725.179 353.484L721.732 369.467C724.221 369.802 726.04 370.328 727.141 371.046C729.152 372.386 730.157 374.635 730.157 377.889C730.157 382.292 728.721 385.402 725.849 387.317C723.934 388.609 721.061 389.422 717.327 389.853L713.689 406.745C720.487 406.65 725.897 406.123 729.822 405.214C734.179 404.161 737.817 402.486 740.785 400.141Z" fill="#A9DDF3"/>
<path d="M706.987 406.745L710.577 390.14H702.63L707.083 369.036H714.263C714.551 369.036 714.838 369.036 715.125 369.036L721.492 340.037C718.811 339.606 716.083 339.367 713.306 339.367C705.551 339.367 698.226 341.138 691.715 344.344L675.199 420.049C680.034 425.935 686.21 430.672 693.295 433.831L699.184 406.745H706.987Z" fill="#A9DDF3"/>
<path d="M691.715 344.344L696.55 322.283C693.199 323.144 689.896 324.245 686.641 325.585C678.502 329.03 671.13 333.959 664.859 340.276C658.587 346.545 653.608 353.867 650.162 362.05C646.571 370.52 644.752 379.469 644.752 388.704C644.752 397.94 646.571 406.937 650.162 415.359C653.608 423.494 658.539 430.864 664.859 437.133C666.63 438.903 668.449 440.53 670.364 442.061L675.199 420.001C668.162 411.483 663.949 400.572 663.949 388.704C663.949 369.228 675.295 352.383 691.715 344.344Z" fill="#A9DDF3"/>
<path d="M776.451 362.05C773.004 353.915 768.073 346.545 761.754 340.276C755.482 334.007 748.158 329.03 739.971 325.585C735.328 323.623 730.493 322.187 725.61 321.278L721.492 339.989C744.854 343.913 762.663 364.251 762.663 388.656C762.663 415.885 740.498 437.994 713.306 437.994C706.173 437.994 699.375 436.463 693.247 433.735L689.13 452.733C696.838 455.652 704.976 457.135 713.306 457.135C722.546 457.135 731.546 455.317 739.971 451.728C748.11 448.283 755.482 443.354 761.754 437.037C768.025 430.768 773.004 423.446 776.451 415.263C780.041 406.793 781.86 397.844 781.86 388.609C781.812 379.469 780.041 370.52 776.451 362.05Z" fill="#A9DDF3"/>
<defs>
<linearGradient id="paint0_linear_324_26" x1="134.948" y1="512.146" x2="889.596" y2="512.146" gradientUnits="userSpaceOnUse">
<stop stop-color="#4E97D2"/>
<stop offset="0.5" stop-color="#048FB6"/>
<stop offset="1" stop-color="#204297"/>
</linearGradient>
</defs>
</svg>
